# xmcd
# 
# Track frame offsets:
#     150
#     25533
#     45895
#     92485
#     140688
#     172073
# 
# Disc length: 3756
# 
# Revision: 1
# Processed by: cddbd v1.5.2PL0 Copyright (c) Steve Scherf et al.
# Submitted via: fre:ac v1.0.27
# 
DISCID=400eaa06
DTITLE=Eric Clapton - Crossroads 2 Live In The Seventies [CD2]
DYEAR=1996
DGENRE=Blues
TTITLE0=Layla
TTITLE1=Further On Up The Road
TTITLE2=I Shot The Sheriff
TTITLE3=Badge
TTITLE4=Driftin' Blues
TTITLE5=Eyesight To The Blind - Why Does Love Got To Be So Sad?
EXTD=YEAR: 1996
EXTT0=Providence Civic Center June 25, 1975
EXTT1=Providence Civic Center June 6, 1975
EXTT2=Nassau Coliseum June 28, 1975
EXTT3=Nassau Coliseum June 28, 1975
EXTT4=Providence Civic Center June 25, 1975
EXTT5=Providence Civic Center June 25, 1975
PLAYORDER=
